solid OpenSCAD_Model
  facet normal -0.38268344697480655 -0.9238795264597438 0
    outer loop
      vertex -29.698484420776367 -29.698484420776367 0
      vertex 0 -42 4
      vertex -29.698484420776367 -29.698484420776367 4
    endloop
  endfacet
  facet normal -0.38268344697480655 -0.9238795264597438 0
    outer loop
      vertex 0 -42 4
      vertex -29.698484420776367 -29.698484420776367 0
      vertex 0 -42 0
    endloop
  endfacet
  facet normal 0.38268344697480655 0.9238795264597438 0
    outer loop
      vertex 29.698484420776367 29.698484420776367 0
      vertex 0 42 4
      vertex 29.698484420776367 29.698484420776367 4
    endloop
  endfacet
  facet normal 0.38268344697480655 0.9238795264597438 0
    outer loop
      vertex 0 42 4
      vertex 29.698484420776367 29.698484420776367 0
      vertex 0 42 0
    endloop
  endfacet
  facet normal -0.9238795264597438 0.38268344697480655 0
    outer loop
      vertex -42 0 0
      vertex -29.698484420776367 29.698484420776367 4
      vertex -29.698484420776367 29.698484420776367 0
    endloop
  endfacet
  facet normal -0.9238795264597438 0.38268344697480655 0
    outer loop
      vertex -29.698484420776367 29.698484420776367 4
      vertex -42 0 0
      vertex -42 0 4
    endloop
  endfacet
  facet normal 0.9238795264597438 0.38268344697480655 0
    outer loop
      vertex 42 0 4
      vertex 29.698484420776367 29.698484420776367 0
      vertex 29.698484420776367 29.698484420776367 4
    endloop
  endfacet
  facet normal 0.9238795264597438 0.38268344697480655 0
    outer loop
      vertex 29.698484420776367 29.698484420776367 0
      vertex 42 0 4
      vertex 42 0 0
    endloop
  endfacet
  facet normal -0.38268344697480655 0.9238795264597438 0
    outer loop
      vertex 0 42 0
      vertex -29.698484420776367 29.698484420776367 4
      vertex 0 42 4
    endloop
  endfacet
  facet normal -0.38268344697480655 0.9238795264597438 0
    outer loop
      vertex -29.698484420776367 29.698484420776367 4
      vertex 0 42 0
      vertex -29.698484420776367 29.698484420776367 0
    endloop
  endfacet
  facet normal -0.9238794967317379 -0.38268351874455053 0
    outer loop
      vertex -42 0 0
      vertex -34.749916076660156 -17.503246307373047 2
      vertex -42 0 4
    endloop
  endfacet
  facet normal -0.9238795264594937 -0.3826834469747029 7.358670223320769e-7
    outer loop
      vertex -29.698484420776367 -29.698484420776367 0
      vertex -34.749916076660156 -17.503246307373047 2
      vertex -42 0 0
    endloop
  endfacet
  facet normal -0.9238795774833573 -0.3826833237928622 -1.4412069696735629e-7
    outer loop
      vertex -34.749916076660156 -17.503246307373047 2
      vertex -29.698484420776367 -29.698484420776367 0
      vertex -31.18036460876465 -26.120908737182617 2
    endloop
  endfacet
  facet normal -0.923879543464003 -0.3826834059211441 -0.0000011567943585308143
    outer loop
      vertex -42 0 4
      vertex -34.749916076660156 -17.503246307373047 2
      vertex -33.09365463256836 -21.501821517944336 4
    endloop
  endfacet
  facet normal -0.9238795489979584 -0.3826833925627409 0
    outer loop
      vertex -29.698484420776367 -29.698484420776367 4
      vertex -31.18036460876465 -26.120908737182617 2
      vertex -29.698484420776367 -29.698484420776367 0
    endloop
  endfacet
  facet normal -0.9238795789307437 -0.38268332029855795 1.5144369256740737e-7
    outer loop
      vertex -31.18036460876465 -26.120908737182617 2
      vertex -29.698484420776367 -29.698484420776367 4
      vertex -31.59641456604004 -25.116474151611328 4
    endloop
  endfacet
  facet normal 0.38268344697480655 -0.9238795264597438 0
    outer loop
      vertex 0 -42 0
      vertex 29.698484420776367 -29.698484420776367 4
      vertex 0 -42 4
    endloop
  endfacet
  facet normal 0.38268344697480655 -0.9238795264597438 0
    outer loop
      vertex 29.698484420776367 -29.698484420776367 4
      vertex 0 -42 0
      vertex 29.698484420776367 -29.698484420776367 0
    endloop
  endfacet
  facet normal 0 0 -1
    outer loop
      vertex -11.606523513793945 -20.52867317199707 0
      vertex 42 0 0
      vertex 29.698484420776367 -29.698484420776367 0
    endloop
  endfacet
  facet normal 0 0 -1
    outer loop
      vertex -11.606523513793945 -20.52867317199707 0
      vertex 29.698484420776367 -29.698484420776367 0
      vertex 0 -42 0
    endloop
  endfacet
  facet normal 0 0 -1
    outer loop
      vertex -14.33707332611084 -17.48728370666504 0
      vertex 42 0 0
      vertex -11.606523513793945 -20.52867317199707 0
    endloop
  endfacet
  facet normal 0 0 -1
    outer loop
      vertex 42 0 0
      vertex -14.33707332611084 -17.48728370666504 0
      vertex 29.698484420776367 29.698484420776367 0
    endloop
  endfacet
  facet normal 0 0 -1
    outer loop
      vertex 0 -42 0
      vertex -12.457505226135254 -20.689477920532227 0
      vertex -11.606523513793945 -20.52867317199707 0
    endloop
  endfacet
  facet normal 0 0 -1
    outer loop
      vertex -29.698484420776367 -29.698484420776367 0
      vertex -12.457505226135254 -20.689477920532227 0
      vertex 0 -42 0
    endloop
  endfacet
  facet normal 0 0 -1
    outer loop
      vertex -12.457505226135254 -20.689477920532227 0
      vertex -29.698484420776367 -29.698484420776367 0
      vertex -14.33707332611084 -17.48728370666504 0
    endloop
  endfacet
  facet normal 0 0 -1
    outer loop
      vertex 29.698484420776367 29.698484420776367 0
      vertex -14.33707332611084 -17.48728370666504 0
      vertex 0 42 0
    endloop
  endfacet
  facet normal 0 0 -1
    outer loop
      vertex -42 0 0
      vertex -14.33707332611084 -17.48728370666504 0
      vertex -29.698484420776367 -29.698484420776367 0
    endloop
  endfacet
  facet normal 0 0 -1
    outer loop
      vertex -14.33707332611084 -17.48728370666504 0
      vertex -29.698484420776367 29.698484420776367 0
      vertex 0 42 0
    endloop
  endfacet
  facet normal 0 0 -1
    outer loop
      vertex -14.33707332611084 -17.48728370666504 0
      vertex -42 0 0
      vertex -29.698484420776367 29.698484420776367 0
    endloop
  endfacet
  facet normal 0 0 1
    outer loop
      vertex 29.698484420776367 29.698484420776367 4
      vertex 17.305177688598633 20.311899185180664 4
      vertex 29.032258987426758 0 4
    endloop
  endfacet
  facet normal 0 0 1
    outer loop
      vertex 29.698484420776367 29.698484420776367 4
      vertex 14.243573188781738 32.59132385253906 4
      vertex 17.305177688598633 20.311899185180664 4
    endloop
  endfacet
  facet normal 0 0 1
    outer loop
      vertex 0 42 4
      vertex 14.243573188781738 32.59132385253906 4
      vertex 29.698484420776367 29.698484420776367 4
    endloop
  endfacet
  facet normal 0 0 1
    outer loop
      vertex 0 42 4
      vertex -8.09369945526123 34.153297424316406 4
      vertex 14.243573188781738 32.59132385253906 4
    endloop
  endfacet
  facet normal 0 0 1
    outer loop
      vertex -8.09369945526123 34.153297424316406 4
      vertex -14.516129493713379 25.142671585083008 4
      vertex -11.734228134155273 25.142671585083008 4
    endloop
  endfacet
  facet normal 0 0 1
    outer loop
      vertex -29.698484420776367 29.698484420776367 4
      vertex -24.61037826538086 7.658921241760254 4
      vertex -14.516129493713379 25.142671585083008 4
    endloop
  endfacet
  facet normal 0 0 1
    outer loop
      vertex -24.61037826538086 7.658921241760254 4
      vertex -29.698484420776367 29.698484420776367 4
      vertex -26.553590774536133 5.3581929206848145 4
    endloop
  endfacet
  facet normal 0 0 1
    outer loop
      vertex -8.09369945526123 34.153297424316406 4
      vertex -29.698484420776367 29.698484420776367 4
      vertex -14.516129493713379 25.142671585083008 4
    endloop
  endfacet
  facet normal 0 0 1
    outer loop
      vertex -29.698484420776367 29.698484420776367 4
      vertex -8.09369945526123 34.153297424316406 4
      vertex 0 42 4
    endloop
  endfacet
  facet normal 0 0 1
    outer loop
      vertex 42 0 4
      vertex 29.823190689086914 -2.320897340774536 4
      vertex 31.293943405151367 -19.131683349609375 4
    endloop
  endfacet
  facet normal 0 0 1
    outer loop
      vertex 29.032258987426758 0 4
      vertex 42 0 4
      vertex 29.698484420776367 29.698484420776367 4
    endloop
  endfacet
  facet normal 0 0 1
    outer loop
      vertex 42 0 4
      vertex 29.032258987426758 0 4
      vertex 29.823190689086914 -2.320897340774536 4
    endloop
  endfacet
  facet normal 0 0 1
    outer loop
      vertex 29.823190689086914 -2.320897340774536 4
      vertex 29.032258987426758 0 4
      vertex 28.144287109375 -1.5380116701126099 4
    endloop
  endfacet
  facet normal 0 0 1
    outer loop
      vertex 31.293943405151367 -19.131683349609375 4
      vertex 29.698484420776367 -29.698484420776367 4
      vertex 42 0 4
    endloop
  endfacet
  facet normal 0 0 1
    outer loop
      vertex 17.470752716064453 -28.8107852935791 4
      vertex 29.698484420776367 -29.698484420776367 4
      vertex 31.293943405151367 -19.131683349609375 4
    endloop
  endfacet
  facet normal 0 0 1
    outer loop
      vertex 17.470752716064453 -28.8107852935791 4
      vertex 0 -42 4
      vertex 29.698484420776367 -29.698484420776367 4
    endloop
  endfacet
  facet normal 0 0 1
    outer loop
      vertex 9.604459762573242 -25.142671585083008 4
      vertex 0 -42 4
      vertex 17.470752716064453 -28.8107852935791 4
    endloop
  endfacet
  facet normal 0 0 1
    outer loop
      vertex -3.3508553504943848 -30.510515213012695 4
      vertex 9.604459762573242 -25.142671585083008 4
      vertex -1.8116517066955566 -25.142671585083008 4
    endloop
  endfacet
  facet normal 0 0 1
    outer loop
      vertex 9.604459762573242 -25.142671585083008 4
      vertex -3.3508553504943848 -30.510515213012695 4
      vertex 0 -42 4
    endloop
  endfacet
  facet normal 0 0 1
    outer loop
      vertex -16.039283752441406 -30.95360565185547 4
      vertex 0 -42 4
      vertex -3.3508553504943848 -30.510515213012695 4
    endloop
  endfacet
  facet normal 0 0 1
    outer loop
      vertex -16.039283752441406 -30.95360565185547 4
      vertex -29.698484420776367 -29.698484420776367 4
      vertex 0 -42 4
    endloop
  endfacet
  facet normal 0 0 1
    outer loop
      vertex -17.43967056274414 -27.106075286865234 4
      vertex -29.698484420776367 -29.698484420776367 4
      vertex -16.039283752441406 -30.95360565185547 4
    endloop
  endfacet
  facet normal 0 0 1
    outer loop
      vertex -29.698484420776367 -29.698484420776367 4
      vertex -17.43967056274414 -27.106075286865234 4
      vertex -31.59641456604004 -25.116474151611328 4
    endloop
  endfacet
  facet normal 0 0 1
    outer loop
      vertex -26.553590774536133 5.3581929206848145 4
      vertex -26.340517044067383 4.662230968475342 4
      vertex -26.243608474731445 4.830081939697266 4
    endloop
  endfacet
  facet normal 0 0 1
    outer loop
      vertex -26.553590774536133 5.3581929206848145 4
      vertex -36.73276138305664 -0.8634216785430908 4
      vertex -26.340517044067383 4.662230968475342 4
    endloop
  endfacet
  facet normal 0 0 1
    outer loop
      vertex -42 0 4
      vertex -26.553590774536133 5.3581929206848145 4
      vertex -29.698484420776367 29.698484420776367 4
    endloop
  endfacet
  facet normal 0 0 1
    outer loop
      vertex -26.553590774536133 5.3581929206848145 4
      vertex -42 0 4
      vertex -36.73276138305664 -0.8634216785430908 4
    endloop
  endfacet
  facet normal 0 0 1
    outer loop
      vertex -33.09365463256836 -21.501821517944336 4
      vertex -36.73276138305664 -0.8634216785430908 4
      vertex -42 0 4
    endloop
  endfacet
  facet normal 0.9238795264597438 -0.38268344697480655 0
    outer loop
      vertex 29.698484420776367 -29.698484420776367 4
      vertex 42 0 0
      vertex 42 0 4
    endloop
  endfacet
  facet normal 0.9238795264597438 -0.38268344697480655 0
    outer loop
      vertex 42 0 0
      vertex 29.698484420776367 -29.698484420776367 4
      vertex 29.698484420776367 -29.698484420776367 0
    endloop
  endfacet
  facet normal 0.6290744643291353 0.6514256821314073 0.42415787036036723
    outer loop
      vertex -16.9057674407959 -2.2141363620758057 26.419525146484375
      vertex -18 -10 40
      vertex -11.76530647277832 -8.900655746459961 29.064855575561523
    endloop
  endfacet
  facet normal -0.8918306049607831 -0.15725346254076286 0.42415742428280623
    outer loop
      vertex -34.749916076660156 -17.503246307373047 2
      vertex -33.28248596191406 -25.82547378540039 2
      vertex -33.09365463256836 -21.501821517944336 4
    endloop
  endfacet
  facet normal -0.8918303372110848 -0.15725375153548027 0.42415788010831534
    outer loop
      vertex -33.09365463256836 -21.501821517944336 4
      vertex -18 -10 40
      vertex -36.73276138305664 -0.8634216785430908 4
    endloop
  endfacet
  facet normal -0.891830357569785 -0.1572536771528227 0.4241578648791803
    outer loop
      vertex -18 -10 40
      vertex -33.09365463256836 -21.501821517944336 4
      vertex -33.28248596191406 -25.82547378540039 2
    endloop
  endfacet
  facet normal -0.12603488557962833 -0.8967751307286091 0.42415748552113985
    outer loop
      vertex -18 -10 40
      vertex -12.444449424743652 -21.29906463623047 17.761734008789062
      vertex -12.047080993652344 -21.195812225341797 18.09811019897461
    endloop
  endfacet
  facet normal -0.1260335097439702 -0.8967751555557866 0.42415784184606503
    outer loop
      vertex -18 -10 40
      vertex -31.59641456604004 -25.116474151611328 4
      vertex -12.444449424743652 -21.29906463623047 17.761734008789062
    endloop
  endfacet
  facet normal -0.1260344740793519 -0.8967748987634089 0.4241580982268509
    outer loop
      vertex -33.28248596191406 -25.82547378540039 2
      vertex -31.59641456604004 -25.116474151611328 4
      vertex -18 -10 40
    endloop
  endfacet
  facet normal -0.12603397812818357 -0.8967751278153261 0.4241577613211743
    outer loop
      vertex -31.59641456604004 -25.116474151611328 4
      vertex -33.28248596191406 -25.82547378540039 2
      vertex -31.18036460876465 -26.120908737182617 2
    endloop
  endfacet
  facet normal -0.12603355692907292 -0.8967751222367535 0.4241578982702808
    outer loop
      vertex -12.444449424743652 -21.29906463623047 17.761734008789062
      vertex -31.59641456604004 -25.116474151611328 4
      vertex -17.43967056274414 -27.106075286865234 4
    endloop
  endfacet
  facet normal 0.813937299827267 -0.3969838299093246 0.4241578842134402
    outer loop
      vertex -12.047080993652344 -21.195812225341797 18.09811019897461
      vertex -11.76530647277832 -8.900655746459961 29.064855575561523
      vertex -18 -10 40
    endloop
  endfacet
  facet normal 0.8139371986574312 -0.3969836262697075 0.4241582689462114
    outer loop
      vertex -11.098974227905273 -19.223987579345703 18.124238967895508
      vertex -12.047080993652344 -21.195812225341797 18.09811019897461
      vertex -10.790960311889648 -19.63149070739746 17.15178108215332
    endloop
  endfacet
  facet normal 0.8139374152358047 -0.39698372369105583 0.42415776216360906
    outer loop
      vertex -11.76530647277832 -8.900655746459961 29.064855575561523
      vertex -12.047080993652344 -21.195812225341797 18.09811019897461
      vertex -11.098974227905273 -19.223987579345703 18.124238967895508
    endloop
  endfacet
  facet normal -0.4251478576407013 0.7995870313188764 0.4241578461966585
    outer loop
      vertex -23.309585571289062 0 15.826854705810547
      vertex -18 -10 40
      vertex -16.9057674407959 -2.2141363620758057 26.419525146484375
    endloop
  endfacet
  facet normal -0.42514783783461163 0.7995870340048045 0.4241578609856883
    outer loop
      vertex -36.73276138305664 -0.8634216785430908 4
      vertex -23.309585571289062 0 15.826854705810547
      vertex -26.340517044067383 4.662230968475342 4
    endloop
  endfacet
  facet normal -0.4251478257298406 0.7995870482818659 0.4241578462047852
    outer loop
      vertex -23.309585571289062 0 15.826854705810547
      vertex -36.73276138305664 -0.8634216785430908 4
      vertex -18 -10 40
    endloop
  endfacet
  facet normal 0 0 -1
    outer loop
      vertex -33.28248596191406 -25.82547378540039 2
      vertex -34.749916076660156 -17.503246307373047 2
      vertex -31.18036460876465 -26.120908737182617 2
    endloop
  endfacet
  facet normal 0.3799355401418225 0.8147744154665824 0.4379402210784373
    outer loop
      vertex 29.823190689086914 -2.320897340774536 4
      vertex 15.518457412719727 -6.495940208435059 24.177627563476562
      vertex 16 -12 34
    endloop
  endfacet
  facet normal 0.37993557366130126 0.8147743899061759 0.4379402395529289
    outer loop
      vertex 15.518457412719727 -6.495940208435059 24.177627563476562
      vertex 29.823190689086914 -2.320897340774536 4
      vertex 28.144287109375 -1.5380116701126099 4
    endloop
  endfacet
  facet normal -0.3799354935724324 -0.8147744511437708 0.4379401951034399
    outer loop
      vertex 12.120162010192871 -20.992734909057617 13.903331756591797
      vertex 16 -12 34
      vertex 10.888960838317871 -15.578787803649902 22.907686233520508
    endloop
  endfacet
  facet normal -0.3799356465033057 -0.8147743808647464 0.4379401931800552
    outer loop
      vertex 12.120162010192871 -20.992734909057617 13.903331756591797
      vertex 17.470752716064453 -28.8107852935791 4
      vertex 16 -12 34
    endloop
  endfacet
  facet normal -0.37993564372811434 -0.8147743812074892 0.4379401949500144
    outer loop
      vertex 17.470752716064453 -28.8107852935791 4
      vertex 12.120162010192871 -20.992734909057617 13.903331756591797
      vertex 9.604459762573242 -25.142671585083008 4
    endloop
  endfacet
  facet normal 0.5156475546034186 -0.7364210560965558 0.4379402100391648
    outer loop
      vertex 31.293943405151367 -19.131683349609375 4
      vertex 16 -12 34
      vertex 17.470752716064453 -28.8107852935791 4
    endloop
  endfacet
  facet normal 0.8955831203401935 0.07835334445454117 0.4379402105019709
    outer loop
      vertex 29.823190689086914 -2.320897340774536 4
      vertex 16 -12 34
      vertex 31.293943405151367 -19.131683349609375 4
    endloop
  endfacet
  facet normal -0.895583129801757 -0.07835326693924075 0.43794020502168696
    outer loop
      vertex 12.207984924316406 -10.231754302978516 26.561731338500977
      vertex 10.888960838317871 -15.578787803649902 22.907686233520508
      vertex 16 -12 34
    endloop
  endfacet
  facet normal -0.5156476037202612 0.736421032216677 0.4379401923624692
    outer loop
      vertex 15.518457412719727 -6.495940208435059 24.177627563476562
      vertex 12.207984924316406 -10.231754302978516 26.561731338500977
      vertex 16 -12 34
    endloop
  endfacet
  facet normal 0.06509310181191863 0.9308751368723791 0.35949181861251395
    outer loop
      vertex 14.243573188781738 32.59132385253906 4
      vertex -8.09369945526123 34.153297424316406 4
      vertex 2 18 44
    endloop
  endfacet
  facet normal -0.5998160936227102 -0.7148330586147514 0.359491797045039
    outer loop
      vertex 2 18 44
      vertex -4.311066627502441 15.159944534301758 27.822593688964844
      vertex 1.6426231861114502 12.889276504516602 33.24127197265625
    endloop
  endfacet
  facet normal -0.5998162902701879 -0.714832871543656 0.3594918409187622
    outer loop
      vertex -4.311066627502441 15.159944534301758 27.822593688964844
      vertex 2 18 44
      vertex -5.75486421585083 16.066495895385742 27.216236114501953
    endloop
  endfacet
  facet normal 0.49449313545841495 -0.7913546542369542 0.35949179434587447
    outer loop
      vertex 8.655632972717285 14.991994857788086 28.223384857177734
      vertex 2 18 44
      vertex 1.6426231861114502 12.889276504516602 33.24127197265625
    endloop
  endfacet
  facet normal 0.49449425611828474 -0.7913538121395193 0.35949210655906605
    outer loop
      vertex 2 18 44
      vertex 8.655632972717285 14.991994857788086 28.223384857177734
      vertex 10.247039794921875 14.66797924041748 25.321088790893555
    endloop
  endfacet
  facet normal 0.9054297710690845 0.22574893909076388 0.35949178872566706
    outer loop
      vertex 10.247039794921875 14.66797924041748 25.321088790893555
      vertex 14.243573188781738 32.59132385253906 4
      vertex 2 18 44
    endloop
  endfacet
  facet normal 0.9054297410910935 0.22574899432880977 0.35949182954171066
    outer loop
      vertex 14.243573188781738 32.59132385253906 4
      vertex 10.247039794921875 14.66797924041748 25.321088790893555
      vertex 17.305177688598633 20.311899185180664 4
    endloop
  endfacet
  facet normal -0.8652000257335548 0.34956345573115555 0.3594917327115443
    outer loop
      vertex -8.767655372619629 20.093345642089844 16.049619674682617
      vertex -8.09369945526123 34.153297424316406 4
      vertex -11.734228134155273 25.142671585083008 4
    endloop
  endfacet
  facet normal -0.8652000209295893 0.3495634610102568 0.35949173914009325
    outer loop
      vertex -7.013930320739746 19.810606002807617 20.54529571533203
      vertex -8.09369945526123 34.153297424316406 4
      vertex -8.767655372619629 20.093345642089844 16.049619674682617
    endloop
  endfacet
  facet normal -0.8651999601229574 0.34956354273540446 0.35949180601719655
    outer loop
      vertex -7.013930320739746 19.810606002807617 20.54529571533203
      vertex 2 18 44
      vertex -8.09369945526123 34.153297424316406 4
    endloop
  endfacet
  facet normal -0.8651999525764769 0.34956356280303535 0.3594918046661295
    outer loop
      vertex 2 18 44
      vertex -7.013930320739746 19.810606002807617 20.54529571533203
      vertex -5.75486421585083 16.066495895385742 27.216236114501953
    endloop
  endfacet
  facet normal 0.5030586854397154 0.7458150944090172 0.4366827268799789
    outer loop
      vertex -6.025895118713379 -20.553543090820312 14.951410293579102
      vertex -10.090447425842285 -19.409910202026367 17.680553436279297
      vertex -10 -22 22
    endloop
  endfacet
  facet normal -0.8453621287057008 -0.3076867139869631 0.43668267355835266
    outer loop
      vertex -16.039283752441406 -30.95360565185547 4
      vertex -12.444449424743652 -21.29906463623047 17.761734008789062
      vertex -17.43967056274414 -27.106075286865234 4
    endloop
  endfacet
  facet normal -0.8453622493372369 -0.3076865255015912 0.43668257283780637
    outer loop
      vertex -12.444449424743652 -21.29906463623047 17.761734008789062
      vertex -16.039283752441406 -30.95360565185547 4
      vertex -10 -22 22
    endloop
  endfacet
  facet normal 0.03139618692823806 -0.8990676282104361 0.43668258420782946
    outer loop
      vertex -10 -22 22
      vertex -16.039283752441406 -30.95360565185547 4
      vertex -3.3508553504943848 -30.510515213012695 4
    endloop
  endfacet
  facet normal 0.864766067027881 -0.24796763343388972 0.43668261024035127
    outer loop
      vertex -3.3508553504943848 -30.510515213012695 4
      vertex -6.025895118713379 -20.553543090820312 14.951410293579102
      vertex -10 -22 22
    endloop
  endfacet
  facet normal 0.8647661085562908 -0.247967570887855 0.43668256351769524
    outer loop
      vertex -6.025895118713379 -20.553543090820312 14.951410293579102
      vertex -3.3508553504943848 -30.510515213012695 4
      vertex -1.8116517066955566 -25.142671585083008 4
    endloop
  endfacet
  facet normal -0.5538586072263029 0.7089068301805306 0.43668266432815056
    outer loop
      vertex -10.090447425842285 -19.409910202026367 17.680553436279297
      vertex -12.047080993652344 -21.195812225341797 18.09811019897461
      vertex -10 -22 22
    endloop
  endfacet
  facet normal -0.5538589306149048 0.7089070174901205 0.43668195008653166
    outer loop
      vertex -12.047080993652344 -21.195812225341797 18.09811019897461
      vertex -10.090447425842285 -19.409910202026367 17.680553436279297
      vertex -10.790960311889648 -19.63149070739746 17.15178108215332
    endloop
  endfacet
  facet normal -0.5538587724926421 0.708906668213446 0.43668271765144856
    outer loop
      vertex -10 -22 22
      vertex -12.047080993652344 -21.195812225341797 18.09811019897461
      vertex -12.444449424743652 -21.29906463623047 17.761734008789062
    endloop
  endfacet
  facet normal 0.7987317225321945 0.4611489274219729 0.38648324951842045
    outer loop
      vertex 0.5298544764518738 0.2862795889377594 62.56338119506836
      vertex 0 0 64
      vertex 0.8150181770324707 0.07830682396888733 62.22219467163086
    endloop
  endfacet
  facet normal 0.7987326507487269 0.4611473039254734 0.3864832683444126
    outer loop
      vertex 0.44464853405952454 0.5580348968505859 62.415218353271484
      vertex 0 0 64
      vertex 0.5298544764518738 0.2862795889377594 62.56338119506836
    endloop
  endfacet
  facet normal 0.7987313057736442 0.4611493468655757 0.38648361034147666
    outer loop
      vertex 0 0 64
      vertex 0.44464853405952454 0.5580348968505859 62.415218353271484
      vertex 0.7434489130973816 1.2876912355422974 60.92707824707031
    endloop
  endfacet
  facet normal 0.7987322101917418 0.46114813092179907 0.3864831920660282
    outer loop
      vertex 11.443280220031738 3.10681414604187 36.643531799316406
      vertex 10.247039794921875 14.66797924041748 25.321088790893555
      vertex 9.793712615966797 5.918490886688232 36.69777297973633
    endloop
  endfacet
  facet normal 0.7987321997514256 0.46114814212961414 0.3864832002696284
    outer loop
      vertex 8.655632972717285 14.991994857788086 28.223384857177734
      vertex 9.793712615966797 5.918490886688232 36.69777297973633
      vertex 10.247039794921875 14.66797924041748 25.321088790893555
    endloop
  endfacet
  facet normal 0.7987321435758719 0.4611481900789834 0.3864832591530592
    outer loop
      vertex 0.9661697149276733 1.673454999923706 60.006500244140625
      vertex 9.793712615966797 5.918490886688232 36.69777297973633
      vertex 8.655632972717285 14.991994857788086 28.223384857177734
    endloop
  endfacet
  facet normal 0.7987321442535903 0.4611481888739587 0.3864832591902648
    outer loop
      vertex 5.8922505378723145 0.6769907474517822 51.0149040222168
      vertex 9.793712615966797 5.918490886688232 36.69777297973633
      vertex 0.9661697149276733 1.673454999923706 60.006500244140625
    endloop
  endfacet
  facet normal 0.7987319515535337 0.46114847795288383 0.3864833125106724
    outer loop
      vertex 9.793712615966797 5.918490886688232 36.69777297973633
      vertex 5.8922505378723145 0.6769907474517822 51.0149040222168
      vertex 8.965856552124023 1.6555629968643188 43.49516296386719
    endloop
  endfacet
  facet normal 0.7987323752763137 0.46114768533859013 0.38648338255650627
    outer loop
      vertex 8.965856552124023 1.6555629968643188 43.49516296386719
      vertex 5.8922505378723145 0.6769907474517822 51.0149040222168
      vertex 12.337700843811035 1.5822803974151611 36.6141242980957
    endloop
  endfacet
  facet normal 0.798732220249114 0.4611480256209075 0.3864832969247956
    outer loop
      vertex 18.051286697387695 14.49331283569336 9.400720596313477
      vertex 17.305177688598633 20.311899185180664 4
      vertex 10.247039794921875 14.66797924041748 25.321088790893555
    endloop
  endfacet
  facet normal 0.7987320745530287 0.46114814936879867 0.3864834503752357
    outer loop
      vertex 17.305177688598633 20.311899185180664 4
      vertex 18.051286697387695 14.49331283569336 9.400720596313477
      vertex 19.479005813598633 16.395366668701172 4.180591106414795
    endloop
  endfacet
  facet normal 0.7987301849609522 0.46114732593975194 0.3864883380011088
    outer loop
      vertex 20.318397521972656 14.965723991394043 4.15168571472168
      vertex 17.305177688598633 20.311899185180664 4
      vertex 19.479005813598633 16.395366668701172 4.180591106414795
    endloop
  endfacet
  facet normal 0.7987322819856537 0.4611480673393631 0.38648311955784087
    outer loop
      vertex 12.034018516540527 2.0999042987823486 36.624107360839844
      vertex 10.247039794921875 14.66797924041748 25.321088790893555
      vertex 11.443280220031738 3.10681414604187 36.643531799316406
    endloop
  endfacet
  facet normal 0.7987304902597463 0.461149550834444 0.3864850523559946
    outer loop
      vertex 12.337700843811035 1.5822803974151611 36.6141242980957
      vertex 10.247039794921875 14.66797924041748 25.321088790893555
      vertex 12.034018516540527 2.0999042987823486 36.624107360839844
    endloop
  endfacet
  facet normal 0.7987320817701128 0.46114832511956055 0.3864832257557965
    outer loop
      vertex 10.247039794921875 14.66797924041748 25.321088790893555
      vertex 29.032258987426758 0 4
      vertex 18.051286697387695 14.49331283569336 9.400720596313477
    endloop
  endfacet
  facet normal 0.7987320912022057 0.4611482700891564 0.38648327192458126
    outer loop
      vertex 10.247039794921875 14.66797924041748 25.321088790893555
      vertex 12.337700843811035 1.5822803974151611 36.6141242980957
      vertex 29.032258987426758 0 4
    endloop
  endfacet
  facet normal 0.7987324993067102 0.4611484563796911 0.3864822062267348
    outer loop
      vertex 20.318397521972656 14.965723991394043 4.15168571472168
      vertex 29.032258987426758 0 4
      vertex 17.305177688598633 20.311899185180664 4
    endloop
  endfacet
  facet normal 0.7987320239828911 0.46114816615380827 0.38648353485908543
    outer loop
      vertex 18.051286697387695 14.49331283569336 9.400720596313477
      vertex 29.032258987426758 0 4
      vertex 20.318397521972656 14.965723991394043 4.15168571472168
    endloop
  endfacet
  facet normal 0.7987321554363394 0.4611481253924159 0.3864833118248185
    outer loop
      vertex 5.8922505378723145 0.6769907474517822 51.0149040222168
      vertex 29.032258987426758 0 4
      vertex 12.337700843811035 1.5822803974151611 36.6141242980957
    endloop
  endfacet
  facet normal 0.7987321120953274 0.46114821947457746 0.38648328913830743
    outer loop
      vertex 0.8150181770324707 0.07830682396888733 62.22219467163086
      vertex 29.032258987426758 0 4
      vertex 5.8922505378723145 0.6769907474517822 51.0149040222168
    endloop
  endfacet
  facet normal 0.7987329857643803 0.46114634925757325 0.38648371507520235
    outer loop
      vertex 29.032258987426758 0 4
      vertex 0.8150181770324707 0.07830682396888733 62.22219467163086
      vertex 0 0 64
    endloop
  endfacet
  facet normal -0.7987320131076606 0.4611483788527849 0.3864833035441922
    outer loop
      vertex -3.2221879959106445 1.1774370670318604 55.93590545654297
      vertex 0 0 64
      vertex -5.976476192474365 10.351560592651367 39.2972297668457
    endloop
  endfacet
  facet normal -0.798732136192727 0.46114815218235616 0.38648331962945237
    outer loop
      vertex 0 0 64
      vertex -3.2221879959106445 1.1774370670318604 55.93590545654297
      vertex -3.6192736625671387 0 56.52016830444336
    endloop
  endfacet
  facet normal -0.79873210451298 0.46114823230421675 0.3864832895002861
    outer loop
      vertex -14.516129493713379 25.142671585083008 4
      vertex -24.61037826538086 7.658921241760254 4
      vertex -7.110586166381836 12.315896034240723 34.60957717895508
    endloop
  endfacet
  facet normal -0.7987326649046107 0.46114740519104297 0.3864831182599659
    outer loop
      vertex -23.309585571289062 0 15.826854705810547
      vertex -26.243608474731445 4.830081939697266 4
      vertex -26.340517044067383 4.662230968475342 4
    endloop
  endfacet
  facet normal -0.7987322112711165 0.46114806081976994 0.3864832734803907
    outer loop
      vertex -26.243608474731445 4.830081939697266 4
      vertex -23.309585571289062 0 15.826854705810547
      vertex -14.373934745788574 0 34.29386901855469
    endloop
  endfacet
  facet normal -0.7987319130545293 -0.4611486291573757 0.3864832116593489
    outer loop
      vertex -3.6192736625671387 0 56.52016830444336
      vertex -1.6980705261230469 -0.37437209486961365 60.0439567565918
      vertex 0 0 64
    endloop
  endfacet
  facet normal -0.7987317379928309 -0.46114904981973526 0.38648307152229483
    outer loop
      vertex -1.6980705261230469 -0.37437209486961365 60.0439567565918
      vertex -3.6192736625671387 0 56.52016830444336
      vertex -3.4826149940490723 -0.6848966479301453 55.985382080078125
    endloop
  endfacet
  facet normal -0.7987318042115813 -0.4611488401031114 0.3864831849026128
    outer loop
      vertex -0.9732227325439453 -0.7268008589744568 61.1214599609375
      vertex 0 0 64
      vertex -1.6980705261230469 -0.37437209486961365 60.0439567565918
    endloop
  endfacet
  facet normal -0.7987318700860309 -0.46114873052685185 0.38648317950765304
    outer loop
      vertex -0.738288402557373 -1.057558298110962 61.21233367919922
      vertex 0 0 64
      vertex -0.9732227325439453 -0.7268008589744568 61.1214599609375
    endloop
  endfacet
  facet normal -0.7987332562282249 -0.46114667540421606 0.386482766962119
    outer loop
      vertex 0 0 64
      vertex -0.738288402557373 -1.057558298110962 61.21233367919922
      vertex -0.71673583984375 -1.2414227724075317 61.03749084472656
    endloop
  endfacet
  facet normal -0.798732015075618 -0.4611484802028241 0.38648317854709835
    outer loop
      vertex -16.9057674407959 -2.2141363620758057 26.419525146484375
      vertex -14.373934745788574 0 34.29386901855469
      vertex -23.309585571289062 0 15.826854705810547
    endloop
  endfacet
  facet normal -0.7987322121336244 -0.4611481610076907 0.3864831521545949
    outer loop
      vertex -11.76530647277832 -8.900655746459961 29.064855575561523
      vertex -14.373934745788574 0 34.29386901855469
      vertex -16.9057674407959 -2.2141363620758057 26.419525146484375
    endloop
  endfacet
  facet normal -0.7987320448001081 -0.4611482516161686 0.3864833898640261
    outer loop
      vertex -11.76530647277832 -8.900655746459961 29.064855575561523
      vertex -8.76015567779541 -9.318940162658691 34.776405334472656
      vertex -14.373934745788574 0 34.29386901855469
    endloop
  endfacet
  facet normal -0.7987320110929151 -0.4611483296519891 0.3864833664139345
    outer loop
      vertex -8.76015567779541 -9.318940162658691 34.776405334472656
      vertex -11.76530647277832 -8.900655746459961 29.064855575561523
      vertex -11.098974227905273 -19.223987579345703 18.124238967895508
    endloop
  endfacet
  facet normal -0.7987343429852234 -0.46114483992459027 0.3864827110581887
    outer loop
      vertex -6.664021015167236 -6.596725940704346 42.356536865234375
      vertex -8.76015567779541 -9.318940162658691 34.776405334472656
      vertex -6.554482460021973 -6.786259174346924 42.35676956176758
    endloop
  endfacet
  facet normal -0.7987333792339584 -0.46114686606625105 0.3864822852535119
    outer loop
      vertex -4.481216907501221 -3.761955976486206 50.25008773803711
      vertex -4.6563897132873535 -3.9894497394561768 49.61661911010742
      vertex -4.440572738647461 -3.9305548667907715 50.13291549682617
    endloop
  endfacet
  facet normal -0.7987325595152566 -0.4611474016674134 0.386483340269151
    outer loop
      vertex -4.440572738647461 -3.9305548667907715 50.13291549682617
      vertex -2.1541707515716553 -3.731132984161377 55.09609603881836
      vertex -4.481216907501221 -3.761955976486206 50.25008773803711
    endloop
  endfacet
  facet normal -0.7987323032653854 -0.46114792675794763 0.3864832433200943
    outer loop
      vertex -6.554482460021973 -6.786259174346924 42.35676956176758
      vertex -2.1541707515716553 -3.731132984161377 55.09609603881836
      vertex -4.440572738647461 -3.9305548667907715 50.13291549682617
    endloop
  endfacet
  facet normal -0.7987323665900308 -0.46114789082678154 0.38648315532180616
    outer loop
      vertex -11.098974227905273 -19.223987579345703 18.124238967895508
      vertex -6.554482460021973 -6.786259174346924 42.35676956176758
      vertex -8.76015567779541 -9.318940162658691 34.776405334472656
    endloop
  endfacet
  facet normal -0.7987321715304715 -0.4611481484976938 0.3864832509946148
    outer loop
      vertex -6.554482460021973 -6.786259174346924 42.35676956176758
      vertex -11.098974227905273 -19.223987579345703 18.124238967895508
      vertex -2.1541707515716553 -3.731132984161377 55.09609603881836
    endloop
  endfacet
  facet normal 0.7987320600655042 -0.4611483280156704 0.38648326715637704
    outer loop
      vertex 9.721656799316406 -6.515953063964844 36.1338005065918
      vertex 29.032258987426758 0 4
      vertex 0 0 64
    endloop
  endfacet
  facet normal 0.7987321642230344 -0.4611480474749326 0.3864833866360169
    outer loop
      vertex 15.518457412719727 -6.495940208435059 24.177627563476562
      vertex 29.032258987426758 0 4
      vertex 9.721656799316406 -6.515953063964844 36.1338005065918
    endloop
  endfacet
  facet normal 0.7987320555831344 -0.4611483886883427 0.3864832040258488
    outer loop
      vertex 29.032258987426758 0 4
      vertex 15.518457412719727 -6.495940208435059 24.177627563476562
      vertex 28.144287109375 -1.5380116701126099 4
    endloop
  endfacet
  facet normal 0.7987323435022898 -0.4611478482384798 0.38648325385242793
    outer loop
      vertex 0 0 64
      vertex 5.491286277770996 -6.881442070007324 44.44047164916992
      vertex 9.721656799316406 -6.515953063964844 36.1338005065918
    endloop
  endfacet
  facet normal 0.7987322282318449 -0.4611480714166259 0.3864832257841453
    outer loop
      vertex 7.925380229949951 -9.818244934082031 35.905845642089844
      vertex 10.888960838317871 -15.578787803649902 22.907686233520508
      vertex 12.207984924316406 -10.231754302978516 26.561731338500977
    endloop
  endfacet
  facet normal 0.7987319659183035 -0.46114843667449895 0.3864833320764917
    outer loop
      vertex 12.120162010192871 -20.992734909057617 13.903331756591797
      vertex 7.925380229949951 -9.818244934082031 35.905845642089844
      vertex 5.491286277770996 -6.881442070007324 44.44047164916992
    endloop
  endfacet
  facet normal 0.7987318603039443 -0.4611485823863428 0.38648337648399156
    outer loop
      vertex 12.120162010192871 -20.992734909057617 13.903331756591797
      vertex 5.491286277770996 -6.881442070007324 44.44047164916992
      vertex 0 0 64
    endloop
  endfacet
  facet normal 0.7987320002077754 -0.46114839117229167 0.3864833155044259
    outer loop
      vertex 7.925380229949951 -9.818244934082031 35.905845642089844
      vertex 12.120162010192871 -20.992734909057617 13.903331756591797
      vertex 10.888960838317871 -15.578787803649902 22.907686233520508
    endloop
  endfacet
  facet normal 0.798732322102812 -0.4611478798740689 0.3864832603307692
    outer loop
      vertex 12.207984924316406 -10.231754302978516 26.561731338500977
      vertex 9.721656799316406 -6.515953063964844 36.1338005065918
      vertex 7.925380229949951 -9.818244934082031 35.905845642089844
    endloop
  endfacet
  facet normal 0.7987320677530145 -0.4611482540550758 0.38648333951795233
    outer loop
      vertex 9.721656799316406 -6.515953063964844 36.1338005065918
      vertex 12.207984924316406 -10.231754302978516 26.561731338500977
      vertex 15.518457412719727 -6.495940208435059 24.177627563476562
    endloop
  endfacet
  facet normal -3.9755773011955403e-7 0.9222964472337467 0.38648319940179876
    outer loop
      vertex 0.9661697149276733 1.673454999923706 60.006500244140625
      vertex 4.822211265563965 11.428364753723145 36.72756576538086
      vertex 2.3839776515960693 8.11948013305664 44.62382507324219
    endloop
  endfacet
  facet normal -1.53935055477181e-7 0.9222964239363126 0.3864832549985394
    outer loop
      vertex 4.822211265563965 11.428364753723145 36.72756576538086
      vertex 1.6426231861114502 12.889276504516602 33.24127197265625
      vertex 0.05538720265030861 11.514609336853027 36.521751403808594
    endloop
  endfacet
  facet normal -8.426946530012841e-8 0.9222964465841399 0.3864832009522042
    outer loop
      vertex 4.822211265563965 11.428364753723145 36.72756576538086
      vertex 8.655632972717285 14.991994857788086 28.223384857177734
      vertex 1.6426231861114502 12.889276504516602 33.24127197265625
    endloop
  endfacet
  facet normal 9.13455429976861e-8 0.9222964183667438 0.3864832682896737
    outer loop
      vertex 8.655632972717285 14.991994857788086 28.223384857177734
      vertex 4.822211265563965 11.428364753723145 36.72756576538086
      vertex 0.9661697149276733 1.673454999923706 60.006500244140625
    endloop
  endfacet
  facet normal -0.000009332984402084258 0.9222967407568322 0.38648249883043867
    outer loop
      vertex 0.9661697149276733 1.673454999923706 60.006500244140625
      vertex 2.3839776515960693 8.11948013305664 44.62382507324219
      vertex 2.3480708599090576 8.171833038330078 44.4988899230957
    endloop
  endfacet
  facet normal 1.1192441428558434e-8 0.9222964243629345 0.3864832539804869
    outer loop
      vertex -5.976476192474365 10.351560592651367 39.2972297668457
      vertex 0.7434489130973816 1.2876912355422974 60.92707824707031
      vertex 1.2400729656219482 9.316072463989258 41.7682991027832
    endloop
  endfacet
  facet normal -1.2557224874254916e-7 0.9222964092173385 0.3864832901236329
    outer loop
      vertex 0.7434489130973816 1.2876912355422974 60.92707824707031
      vertex -5.976476192474365 10.351560592651367 39.2972297668457
      vertex 0 0 64
    endloop
  endfacet
  facet normal -0.0000015246777764960643 0.9222963104888988 0.386483525724241
    outer loop
      vertex 0.05538720265030861 11.514609336853027 36.521751403808594
      vertex 1.2400729656219482 9.316072463989258 41.7682991027832
      vertex 1.560193419456482 9.320572853088379 41.75756072998047
    endloop
  endfacet
  facet normal 2.13393294457526e-8 0.9222964349257256 0.386483228773638
    outer loop
      vertex 1.2400729656219482 9.316072463989258 41.7682991027832
      vertex 0.05538720265030861 11.514609336853027 36.521751403808594
      vertex -5.976476192474365 10.351560592651367 39.2972297668457
    endloop
  endfacet
  facet normal 2.0915609532723424e-8 0.9222963937803947 0.3864833269620807
    outer loop
      vertex -4.311066627502441 15.159944534301758 27.822593688964844
      vertex 0.05538720265030861 11.514609336853027 36.521751403808594
      vertex 1.6426231861114502 12.889276504516602 33.24127197265625
    endloop
  endfacet
  facet normal 6.440791024630131e-8 0.9222964015619286 0.3864833083923721
    outer loop
      vertex 0.05538720265030861 11.514609336853027 36.521751403808594
      vertex -4.311066627502441 15.159944534301758 27.822593688964844
      vertex -5.976476192474365 10.351560592651367 39.2972297668457
    endloop
  endfacet
  facet normal 0 0.9222964527153209 0.3864831863208745
    outer loop
      vertex -14.516129493713379 25.142671585083008 4
      vertex -8.767655372619629 20.093345642089844 16.049619674682617
      vertex -11.734228134155273 25.142671585083008 4
    endloop
  endfacet
  facet normal -3.7101004973642765e-7 0.9222963896244418 0.38648333687958975
    outer loop
      vertex -8.767655372619629 20.093345642089844 16.049619674682617
      vertex -14.516129493713379 25.142671585083008 4
      vertex -7.110586166381836 12.315896034240723 34.60957717895508
    endloop
  endfacet
  facet normal 5.083685759867856e-7 -0.9222964607815317 0.3864831670714809
    outer loop
      vertex -2.1541707515716553 -3.731132984161377 55.09609603881836
      vertex -11.098974227905273 -19.223987579345703 18.124238967895508
      vertex -4.270776748657227 -12.039514541625977 35.269126892089844
    endloop
  endfacet
  facet normal 0.0000014438773644207866 -0.922296265055701 0.3864836341453792
    outer loop
      vertex -11.098974227905273 -19.223987579345703 18.124238967895508
      vertex -10.790960311889648 -19.63149070739746 17.15178108215332
      vertex -10.090447425842285 -19.409910202026367 17.680553436279297
    endloop
  endfacet
  facet normal 1.2052230857661834e-7 -0.9222964159144812 0.3864832741416993
    outer loop
      vertex -2.3555710315704346 -12.003528594970703 35.35500717163086
      vertex 3.8790602684020996 -9.10727310180664 42.26657485961914
      vertex 0.12605050206184387 -2.261741876602173 58.602622985839844
    endloop
  endfacet
  facet normal -0.011458465630184902 -0.9974634117414951 0.0702527280781215
    outer loop
      vertex 3.8717923164367676 -9.194190979003906 42.05915451049805
      vertex 3.910327911376953 -9.194723129272461 42.057884216308594
      vertex 3.9035720825195312 -9.194629669189453 42.058109283447266
    endloop
  endfacet
  facet normal -0.00017438287180704368 -0.9222382129510874 0.3866220999417889
    outer loop
      vertex 3.910327911376953 -9.194723129272461 42.057884216308594
      vertex -2.3555710315704346 -12.003528594970703 35.35500717163086
      vertex 3.916156768798828 -9.194804191589355 42.05769348144531
    endloop
  endfacet
  facet normal 0.0000037113850241909005 -0.922297580924684 0.38648049395370765
    outer loop
      vertex 3.8717923164367676 -9.194190979003906 42.05915451049805
      vertex -2.3555710315704346 -12.003528594970703 35.35500717163086
      vertex 3.910327911376953 -9.194723129272461 42.057884216308594
    endloop
  endfacet
  facet normal 0.0000026222880836742915 -0.9222972203278437 0.3864813544902995
    outer loop
      vertex 3.8790602684020996 -9.10727310180664 42.26657485961914
      vertex -2.3555710315704346 -12.003528594970703 35.35500717163086
      vertex 3.8717923164367676 -9.194190979003906 42.05915451049805
    endloop
  endfacet
  facet normal -9.305003678981505e-7 -0.9222963915437584 0.38648333229842746
    outer loop
      vertex 0.12605050206184387 -2.261741876602173 58.602622985839844
      vertex 0 0 64
      vertex -0.71673583984375 -1.2414227724075317 61.03749084472656
    endloop
  endfacet
  facet normal 5.707258449703706e-7 -0.922296379046907 0.3864833621213702
    outer loop
      vertex 3.8790602684020996 -9.10727310180664 42.26657485961914
      vertex 0 0 64
      vertex 0.12605050206184387 -2.261741876602173 58.602622985839844
    endloop
  endfacet
  facet normal -0.000007763174837372927 -0.9222954993711957 0.3864854612781313
    outer loop
      vertex -10.090447425842285 -19.409910202026367 17.680553436279297
      vertex -4.057459831237793 -12.035507202148438 35.27869415283203
      vertex -4.270776748657227 -12.039514541625977 35.269126892089844
    endloop
  endfacet
  facet normal 0.000002828093841300998 -0.922296793637611 0.38648237273876285
    outer loop
      vertex -4.057459831237793 -12.035507202148438 35.27869415283203
      vertex -10.090447425842285 -19.409910202026367 17.680553436279297
      vertex -3.631213903427124 -12.027497291564941 35.29780578613281
    endloop
  endfacet
  facet normal 0.0000010988543607537621 -0.9222965446076934 0.3864829670289514
    outer loop
      vertex -10.090447425842285 -19.409910202026367 17.680553436279297
      vertex -4.270776748657227 -12.039514541625977 35.269126892089844
      vertex -11.098974227905273 -19.223987579345703 18.124238967895508
    endloop
  endfacet
  facet normal -9.042105101998986e-7 -0.9222963058645812 0.3864835367615664
    outer loop
      vertex -3.631213903427124 -12.027497291564941 35.29780578613281
      vertex -10.090447425842285 -19.409910202026367 17.680553436279297
      vertex -2.3555710315704346 -12.003528594970703 35.35500717163086
    endloop
  endfacet
  facet normal -1.0922982766887905e-7 -0.9222964298774126 0.38648324082082386
    outer loop
      vertex -6.025895118713379 -20.553543090820312 14.951410293579102
      vertex -2.3555710315704346 -12.003528594970703 35.35500717163086
      vertex -10.090447425842285 -19.409910202026367 17.680553436279297
    endloop
  endfacet
  facet normal -1.510672614045034e-8 -0.9222964359126657 0.38648322641842286
    outer loop
      vertex 12.120162010192871 -20.992734909057617 13.903331756591797
      vertex -2.3555710315704346 -12.003528594970703 35.35500717163086
      vertex -6.025895118713379 -20.553543090820312 14.951410293579102
    endloop
  endfacet
  facet normal 8.738343636982666e-8 -0.9222964097977204 0.38648328873863064
    outer loop
      vertex 3.8790602684020996 -9.10727310180664 42.26657485961914
      vertex 12.120162010192871 -20.992734909057617 13.903331756591797
      vertex 0 0 64
    endloop
  endfacet
  facet normal 0.00001920570251167358 -0.9222944295464668 0.3864880138616182
    outer loop
      vertex 3.916156768798828 -9.194804191589355 42.05769348144531
      vertex 12.120162010192871 -20.992734909057617 13.903331756591797
      vertex 3.8790602684020996 -9.10727310180664 42.26657485961914
    endloop
  endfacet
  facet normal 5.6294416105670525e-8 -0.9222964187381008 0.3864832674034811
    outer loop
      vertex -2.3555710315704346 -12.003528594970703 35.35500717163086
      vertex 12.120162010192871 -20.992734909057617 13.903331756591797
      vertex 3.916156768798828 -9.194804191589355 42.05769348144531
    endloop
  endfacet
  facet normal -1.2914396556707104e-8 -0.922296422382739 0.3864832587059887
    outer loop
      vertex -1.8116517066955566 -25.142671585083008 4
      vertex 12.120162010192871 -20.992734909057617 13.903331756591797
      vertex -6.025895118713379 -20.553543090820312 14.951410293579102
    endloop
  endfacet
  facet normal 0 -0.9222964288586618 0.3864832432519676
    outer loop
      vertex 12.120162010192871 -20.992734909057617 13.903331756591797
      vertex -1.8116517066955566 -25.142671585083008 4
      vertex 9.604459762573242 -25.142671585083008 4
    endloop
  endfacet
  facet normal 0.35837020823075294 0.8413593732640858 0.40458027494344223
    outer loop
      vertex -5.976476192474365 10.351560592651367 39.2972297668457
      vertex -5.890064239501953 -0.49248790740966797 61.77181625366211
      vertex -3.2221879959106445 1.1774370670318604 55.93590545654297
    endloop
  endfacet
  facet normal 0.358370807377008 0.8413591032877781 0.4045803056684014
    outer loop
      vertex -5.75486421585083 16.066495895385742 27.216236114501953
      vertex -5.976476192474365 10.351560592651367 39.2972297668457
      vertex -4.311066627502441 15.159944534301758 27.822593688964844
    endloop
  endfacet
  facet normal 0.35837132098723834 0.8413589902235257 0.40458008584693206
    outer loop
      vertex -5.976476192474365 10.351560592651367 39.2972297668457
      vertex -7.013930320739746 19.810606002807617 20.54529571533203
      vertex -5.890064239501953 -0.49248790740966797 61.77181625366211
    endloop
  endfacet
  facet normal 0.3583692224760921 0.8413596646483864 0.4045805421478348
    outer loop
      vertex -7.013930320739746 19.810606002807617 20.54529571533203
      vertex -5.976476192474365 10.351560592651367 39.2972297668457
      vertex -5.75486421585083 16.066495895385742 27.216236114501953
    endloop
  endfacet
  facet normal 0.35837068745484596 0.8413590367123482 0.40458055034271057
    outer loop
      vertex 19.479005813598633 16.395366668701172 4.180591106414795
      vertex 18.051286697387695 14.49331283569336 9.400720596313477
      vertex 20.420827865600586 15.9764986038208 4.217411994934082
    endloop
  endfacet
  facet normal 0.9154557411243698 -0.1177932989854311 0.3847928335566551
    outer loop
      vertex -5.890064239501953 -0.49248790740966797 61.77181625366211
      vertex -3.6192736625671387 0 56.52016830444336
      vertex -3.2221879959106445 1.1774370670318604 55.93590545654297
    endloop
  endfacet
  facet normal 0.9154557421443975 -0.1177932854800005 0.38479283526422015
    outer loop
      vertex -3.657590866088867 -1.503143310546875 56.15118408203125
      vertex -3.6192736625671387 0 56.52016830444336
      vertex -5.890064239501953 -0.49248790740966797 61.77181625366211
    endloop
  endfacet
  facet normal 0.9154564841424084 -0.11779290002665428 0.384791187977234
    outer loop
      vertex -3.6192736625671387 0 56.52016830444336
      vertex -3.657590866088867 -1.503143310546875 56.15118408203125
      vertex -3.4826149940490723 -0.6848966479301453 55.985382080078125
    endloop
  endfacet
  facet normal 0.9154560487254505 -0.11779153388264796 0.38479264207824787
    outer loop
      vertex -3.657590866088867 -1.503143310546875 56.15118408203125
      vertex -5.890064239501953 -0.49248790740966797 61.77181625366211
      vertex -3.5144782066345215 -1.9112197160720825 55.685787200927734
    endloop
  endfacet
  facet normal 0.9154556993136977 -0.11779230360574217 0.3847932377333588
    outer loop
      vertex 20.420827865600586 15.9764986038208 4.217411994934082
      vertex 18.051286697387695 14.49331283569336 9.400720596313477
      vertex 20.318397521972656 14.965723991394043 4.15168571472168
    endloop
  endfacet
  facet normal 0.0648343760343165 0.05820809709842898 -0.9961969288832508
    outer loop
      vertex -12.464576721191406 -20.711223602294922 -0.06651020050048828
      vertex -14.33707332611084 -17.48728370666504 0
      vertex -11.606523513793945 -20.52867317199707 0
    endloop
  endfacet
  facet normal 0.17777006937135517 -0.9407722776647578 0.28869590231447284
    outer loop
      vertex -5.890064239501953 -0.49248790740966797 61.77181625366211
      vertex -4.481216907501221 -3.761955976486206 50.25008773803711
      vertex -3.5144782066345215 -1.9112197160720825 55.685787200927734
    endloop
  endfacet
  facet normal 0.1777683425629476 -0.9407726374314825 0.28869579325413547
    outer loop
      vertex -5.890064239501953 -0.49248790740966797 61.77181625366211
      vertex -4.6563897132873535 -3.9894497394561768 49.61661911010742
      vertex -4.481216907501221 -3.761955976486206 50.25008773803711
    endloop
  endfacet
  facet normal 0.17777089313818684 -0.9407721215747358 0.2886959037129236
    outer loop
      vertex -5.890064239501953 -0.49248790740966797 61.77181625366211
      vertex -5.739529132843018 -5.032569408416748 46.884376525878906
      vertex -4.6563897132873535 -3.9894497394561768 49.61661911010742
    endloop
  endfacet
  facet normal 0.17776990420570601 -0.9407722952601042 0.2886959466804642
    outer loop
      vertex -5.890064239501953 -0.49248790740966797 61.77181625366211
      vertex -7.06597900390625 -6.668129920959473 42.371368408203125
      vertex -5.739529132843018 -5.032569408416748 46.884376525878906
    endloop
  endfacet
  facet normal 0.17777149861022168 -0.940772116021234 0.2886955489764358
    outer loop
      vertex -7.06597900390625 -6.668129920959473 42.371368408203125
      vertex -8.76015567779541 -9.318940162658691 34.776405334472656
      vertex -6.664021015167236 -6.596725940704346 42.356536865234375
    endloop
  endfacet
  facet normal 0.17777002686918147 -0.9407722762226478 0.2886959331853991
    outer loop
      vertex -8.76015567779541 -9.318940162658691 34.776405334472656
      vertex -7.06597900390625 -6.668129920959473 42.371368408203125
      vertex -5.890064239501953 -0.49248790740966797 61.77181625366211
    endloop
  endfacet
  facet normal 0.17777232146301486 -0.940774423041443 0.2886875242761464
    outer loop
      vertex -12.457505226135254 -20.689477920532227 0
      vertex -12.464576721191406 -20.711223602294922 -0.06651020050048828
      vertex -11.606523513793945 -20.52867317199707 0
    endloop
  endfacet
  facet normal 0.06483431750334323 0.05820814690980785 -0.9961969297820596
    outer loop
      vertex 20.318397521972656 14.965723991394043 4.15168571472168
      vertex 19.479005813598633 16.395366668701172 4.180591106414795
      vertex 20.420827865600586 15.9764986038208 4.217411994934082
    endloop
  endfacet
  facet normal -0.8352294923602132 -0.4902499062268594 0.2490917994159102
    outer loop
      vertex -14.373934745788574 0 34.29386901855469
      vertex -26.553590774536133 5.3581929206848145 4
      vertex -26.243608474731445 4.830081939697266 4
    endloop
  endfacet
  facet normal -0.8352299518176196 -0.4902489430397192 0.24909215450345878
    outer loop
      vertex -14.373934745788574 0 34.29386901855469
      vertex -5.890064239501953 -0.49248790740966797 61.77181625366211
      vertex -26.553590774536133 5.3581929206848145 4
    endloop
  endfacet
  facet normal -0.8352300201467213 -0.4902489705641886 0.2490918712171492
    outer loop
      vertex -12.148470878601074 -2.6263859272003174 36.58696365356445
      vertex -14.373934745788574 0 34.29386901855469
      vertex -12.620739936828613 -2.45845627784729 35.33390808105469
    endloop
  endfacet
  facet normal -0.8352300703265897 -0.4902496096160836 0.24909044520719273
    outer loop
      vertex -14.373934745788574 0 34.29386901855469
      vertex -12.087061882019043 -3.3767900466918945 35.31596755981445
      vertex -12.620739936828613 -2.45845627784729 35.33390808105469
    endloop
  endfacet
  facet normal -0.835229894897847 -0.4902488753265356 0.24909247862992262
    outer loop
      vertex -12.087061882019043 -3.3767900466918945 35.31596755981445
      vertex -14.373934745788574 0 34.29386901855469
      vertex -8.76015567779541 -9.318940162658691 34.776405334472656
    endloop
  endfacet
  facet normal -0.8352300662878663 -0.49024872810354714 0.24909219369867983
    outer loop
      vertex -14.373934745788574 0 34.29386901855469
      vertex -12.148470878601074 -2.6263859272003174 36.58696365356445
      vertex -5.890064239501953 -0.49248790740966797 61.77181625366211
    endloop
  endfacet
  facet normal -0.8352301846952472 -0.4902489381221071 0.24909138331963557
    outer loop
      vertex -8.76015567779541 -9.318940162658691 34.776405334472656
      vertex -12.148470878601074 -2.6263859272003174 36.58696365356445
      vertex -12.087061882019043 -3.3767900466918945 35.31596755981445
    endloop
  endfacet
  facet normal -0.8352299048577205 -0.4902490113194703 0.2490921775801976
    outer loop
      vertex -12.148470878601074 -2.6263859272003174 36.58696365356445
      vertex -8.76015567779541 -9.318940162658691 34.776405334472656
      vertex -5.890064239501953 -0.49248790740966797 61.77181625366211
    endloop
  endfacet
  facet normal -0.8352302119585004 -0.49024885990196093 0.2490914458518919
    outer loop
      vertex -12.457505226135254 -20.689477920532227 0
      vertex -14.33707332611084 -17.48728370666504 0
      vertex -12.464576721191406 -20.711223602294922 -0.06651020050048828
    endloop
  endfacet
  facet normal -0.723613087916518 0.611168967602998 0.3207126315488793
    outer loop
      vertex -7.110586166381836 12.315896034240723 34.60957717895508
      vertex -7.013930320739746 19.810606002807617 20.54529571533203
      vertex -8.767655372619629 20.093345642089844 16.049619674682617
    endloop
  endfacet
  facet normal -0.7236130277007888 0.6111690260580698 0.3207126560161416
    outer loop
      vertex -26.553590774536133 5.3581929206848145 4
      vertex -7.110586166381836 12.315896034240723 34.60957717895508
      vertex -24.61037826538086 7.658921241760254 4
    endloop
  endfacet
  facet normal -0.723613339864946 0.61116873519779 0.32071250597105144
    outer loop
      vertex -7.110586166381836 12.315896034240723 34.60957717895508
      vertex -5.890064239501953 -0.49248790740966797 61.77181625366211
      vertex -7.013930320739746 19.810606002807617 20.54529571533203
    endloop
  endfacet
  facet normal -0.7236130126991789 0.6111690519027564 0.3207126406125956
    outer loop
      vertex -5.890064239501953 -0.49248790740966797 61.77181625366211
      vertex -7.110586166381836 12.315896034240723 34.60957717895508
      vertex -26.553590774536133 5.3581929206848145 4
    endloop
  endfacet
  facet normal 0.662683398434473 0.595476608254405 0.45415671575037536
    outer loop
      vertex 9.793712615966797 5.918490886688232 36.69777297973633
      vertex 8.965856552124023 1.6555629968643188 43.49516296386719
      vertex 12.698492050170898 2.6991472244262695 36.68036651611328
    endloop
  endfacet
  facet normal 0.6626837293546337 0.5954761870783335 0.45415678512082597
    outer loop
      vertex 3.989818572998047 12.350898742675781 36.7325553894043
      vertex 2.3839776515960693 8.11948013305664 44.62382507324219
      vertex 4.822211265563965 11.428364753723145 36.72756576538086
    endloop
  endfacet
  facet normal 0.6626845065905714 0.5954761304461581 0.45415572526797593
    outer loop
      vertex -0.9732227325439453 -0.7268008589744568 61.1214599609375
      vertex -1.1415319442749023 -1.1702985763549805 61.948551177978516
      vertex -0.738288402557373 -1.057558298110962 61.21233367919922
    endloop
  endfacet
  facet normal -0.697575649199936 -0.6312480391465012 0.33898986226284883
    outer loop
      vertex -3.5144782066345215 -1.9112197160720825 55.685787200927734
      vertex -4.481216907501221 -3.761955976486206 50.25008773803711
      vertex -2.1541707515716553 -3.731132984161377 55.09609603881836
    endloop
  endfacet
  facet normal -0.6975748527537748 -0.6312479990674369 0.33899157582291994
    outer loop
      vertex -2.1541707515716553 -3.731132984161377 55.09609603881836
      vertex -3.657590866088867 -1.503143310546875 56.15118408203125
      vertex -3.5144782066345215 -1.9112197160720825 55.685787200927734
    endloop
  endfacet
  facet normal -0.6975757682912173 -0.6312478532569014 0.33898996334916964
    outer loop
      vertex -3.657590866088867 -1.503143310546875 56.15118408203125
      vertex -2.1541707515716553 -3.731132984161377 55.09609603881836
      vertex -1.1415319442749023 -1.1702985763549805 61.948551177978516
    endloop
  endfacet
  facet normal -0.6975770424392674 -0.6312466988063012 0.3389894911466008
    outer loop
      vertex -3.989818572998047 -12.350898742675781 35.2674446105957
      vertex -2.1541707515716553 -3.731132984161377 55.09609603881836
      vertex -4.270776748657227 -12.039514541625977 35.269126892089844
    endloop
  endfacet
  facet normal -0.6975750029543961 -0.6312486082315952 0.33899013239156156
    outer loop
      vertex -2.1541707515716553 -3.731132984161377 55.09609603881836
      vertex -3.989818572998047 -12.350898742675781 35.2674446105957
      vertex -1.1415319442749023 -1.1702985763549805 61.948551177978516
    endloop
  endfacet
  facet normal -0.6975751622850376 -0.6312487853408292 0.33898947471673985
    outer loop
      vertex -12.148470878601074 -2.6263859272003174 36.58696365356445
      vertex -12.698492050170898 -2.6991472244262695 35.31963348388672
      vertex -12.087061882019043 -3.3767900466918945 35.31596755981445
    endloop
  endfacet
  facet normal -0.8898916431296992 0.26546695707772716 0.37097191024094567
    outer loop
      vertex -3.657590866088867 -1.503143310546875 56.15118408203125
      vertex -1.6980705261230469 -0.37437209486961365 60.0439567565918
      vertex -3.4826149940490723 -0.6848966479301453 55.985382080078125
    endloop
  endfacet
  facet normal -0.8898916622469151 0.26546682672652516 0.37097195766145374
    outer loop
      vertex -1.6980705261230469 -0.37437209486961365 60.0439567565918
      vertex -3.657590866088867 -1.503143310546875 56.15118408203125
      vertex -1.1415319442749023 -1.1702985763549805 61.948551177978516
    endloop
  endfacet
  facet normal -0.8898917464815086 0.2654669558193509 0.3709716632198437
    outer loop
      vertex -12.620739936828613 -2.45845627784729 35.33390808105469
      vertex -12.698492050170898 -2.6991472244262695 35.31963348388672
      vertex -12.148470878601074 -2.6263859272003174 36.58696365356445
    endloop
  endfacet
  facet normal 0.8549996552344091 -0.3012374837709838 0.4221748073018662
    outer loop
      vertex 12.698492050170898 2.6991472244262695 36.68036651611328
      vertex 8.965856552124023 1.6555629968643188 43.49516296386719
      vertex 12.337700843811035 1.5822803974151611 36.6141242980957
    endloop
  endfacet
  facet normal 0.8550004286222073 -0.30123633073109773 0.4221740637503761
    outer loop
      vertex -1.1415319442749023 -1.1702985763549805 61.948551177978516
      vertex -0.71673583984375 -1.2414227724075317 61.03749084472656
      vertex -0.738288402557373 -1.057558298110962 61.21233367919922
    endloop
  endfacet
  facet normal 0.8550010508704085 -0.3012343722566335 0.4221742009901236
    outer loop
      vertex -0.71673583984375 -1.2414227724075317 61.03749084472656
      vertex -1.1415319442749023 -1.1702985763549805 61.948551177978516
      vertex 0.12605050206184387 -2.261741876602173 58.602622985839844
    endloop
  endfacet
  facet normal 0.8549995832806573 -0.30123792516810766 0.42217463807092437
    outer loop
      vertex 9.721656799316406 -6.515953063964844 36.1338005065918
      vertex 5.491286277770996 -6.881442070007324 44.44047164916992
      vertex 8.708672523498535 -9.651750564575195 35.947811126708984
    endloop
  endfacet
  facet normal -0.20977581719856686 0.8788261658806101 0.42855417006751867
    outer loop
      vertex 2.3839776515960693 8.11948013305664 44.62382507324219
      vertex 2.416402578353882 9.541023254394531 41.724571228027344
      vertex 2.3480708599090576 8.171833038330078 44.4988899230957
    endloop
  endfacet
  facet normal -0.2097621148231121 0.8788287451077729 0.4285555879430727
    outer loop
      vertex 2.416402578353882 9.541023254394531 41.724571228027344
      vertex 2.3839776515960693 8.11948013305664 44.62382507324219
      vertex 3.989818572998047 12.350898742675781 36.7325553894043
    endloop
  endfacet
  facet normal -0.20975954336091357 0.8788289165744647 0.4285564949473679
    outer loop
      vertex 3.989818572998047 12.350898742675781 36.7325553894043
      vertex 2.263137102127075 9.501562118530273 41.73047637939453
      vertex 2.416402578353882 9.541023254394531 41.724571228027344
    endloop
  endfacet
  facet normal -0.20976254892807042 0.8788287514548085 0.42855536244875214
    outer loop
      vertex 0.05538720265030861 11.514609336853027 36.521751403808594
      vertex 2.263137102127075 9.501562118530273 41.73047637939453
      vertex 3.989818572998047 12.350898742675781 36.7325553894043
    endloop
  endfacet
  facet normal -0.2097627645999321 0.8788286706319984 0.4285554226265115
    outer loop
      vertex 2.263137102127075 9.501562118530273 41.73047637939453
      vertex 0.05538720265030861 11.514609336853027 36.521751403808594
      vertex 1.560193419456482 9.320572853088379 41.75756072998047
    endloop
  endfacet
  facet normal -0.20976086315266462 0.8788293118599035 0.42855503836181597
    outer loop
      vertex -0.9732227325439453 -0.7268008589744568 61.1214599609375
      vertex -1.6980705261230469 -0.37437209486961365 60.0439567565918
      vertex -1.1415319442749023 -1.1702985763549805 61.948551177978516
    endloop
  endfacet
  facet normal 0.043906471310427936 0.04501247704943608 -0.998021091303656
    outer loop
      vertex 11.443280220031738 3.10681414604187 36.643531799316406
      vertex 9.793712615966797 5.918490886688232 36.69777297973633
      vertex 12.698492050170898 2.6991472244262695 36.68036651611328
    endloop
  endfacet
  facet normal 0.043905381011809116 0.045013266601061024 -0.9980211036586901
    outer loop
      vertex 4.822211265563965 11.428364753723145 36.72756576538086
      vertex 0.05538720265030861 11.514609336853027 36.521751403808594
      vertex 3.989818572998047 12.350898742675781 36.7325553894043
    endloop
  endfacet
  facet normal 0.043898735707216925 0.04500849385875251 -0.9980216112308764
    outer loop
      vertex -12.087061882019043 -3.3767900466918945 35.31596755981445
      vertex -12.698492050170898 -2.6991472244262695 35.31963348388672
      vertex -12.620739936828613 -2.45845627784729 35.33390808105469
    endloop
  endfacet
  facet normal 0.04391553579256243 0.045016350283542186 -0.9980205177866843
    outer loop
      vertex -3.989818572998047 -12.350898742675781 35.2674446105957
      vertex -4.270776748657227 -12.039514541625977 35.269126892089844
      vertex -4.057459831237793 -12.035507202148438 35.27869415283203
    endloop
  endfacet
  facet normal 0.0439063633831959 0.045012142949544344 -0.998021111120177
    outer loop
      vertex 12.034018516540527 2.0999042987823486 36.624107360839844
      vertex 11.443280220031738 3.10681414604187 36.643531799316406
      vertex 12.698492050170898 2.6991472244262695 36.68036651611328
    endloop
  endfacet
  facet normal 0.04390249748233293 0.045013578908067536 -0.9980212164221265
    outer loop
      vertex -3.989818572998047 -12.350898742675781 35.2674446105957
      vertex -4.057459831237793 -12.035507202148438 35.27869415283203
      vertex -3.631213903427124 -12.027497291564941 35.29780578613281
    endloop
  endfacet
  facet normal 0.1748699513616019 -0.9146002731607633 0.36459133347495815
    outer loop
      vertex -3.989818572998047 -12.350898742675781 35.2674446105957
      vertex 0.12605050206184387 -2.261741876602173 58.602622985839844
      vertex -1.1415319442749023 -1.1702985763549805 61.948551177978516
    endloop
  endfacet
  facet normal 0.17486964422648063 -0.9146003048308764 0.36459140134042123
    outer loop
      vertex 0.12605050206184387 -2.261741876602173 58.602622985839844
      vertex -3.989818572998047 -12.350898742675781 35.2674446105957
      vertex -2.3555710315704346 -12.003528594970703 35.35500717163086
    endloop
  endfacet
  facet normal 0.17487145788342054 -0.9145998726888341 0.36459161550328556
    outer loop
      vertex 8.708672523498535 -9.651750564575195 35.947811126708984
      vertex 5.491286277770996 -6.881442070007324 44.44047164916992
      vertex 7.925380229949951 -9.818244934082031 35.905845642089844
    endloop
  endfacet
  facet normal 0.043909175096303175 0.04500902674825371 -0.9980211279594923
    outer loop
      vertex 12.337700843811035 1.5822803974151611 36.6141242980957
      vertex 12.034018516540527 2.0999042987823486 36.624107360839844
      vertex 12.698492050170898 2.6991472244262695 36.68036651611328
    endloop
  endfacet
  facet normal 0.04390208434843343 0.045012230762095234 -0.9980212953998941
    outer loop
      vertex 8.708672523498535 -9.651750564575195 35.947811126708984
      vertex 7.925380229949951 -9.818244934082031 35.905845642089844
      vertex 9.721656799316406 -6.515953063964844 36.1338005065918
    endloop
  endfacet
  facet normal 0.04390679907299398 0.045008811496420116 -0.9980212422002066
    outer loop
      vertex -2.3555710315704346 -12.003528594970703 35.35500717163086
      vertex -3.989818572998047 -12.350898742675781 35.2674446105957
      vertex -3.631213903427124 -12.027497291564941 35.29780578613281
    endloop
  endfacet
  facet normal 0.7154217875635388 0.6193913639572931 0.32330481613256984
    outer loop
      vertex 2.241990089416504 9.741588592529297 41.72627258300781
      vertex 2.3480708599090576 8.171833038330078 44.4988899230957
      vertex 2.416402578353882 9.541023254394531 41.724571228027344
    endloop
  endfacet
  facet normal 0.7154227134014962 0.6193905527846487 0.32330432145328325
    outer loop
      vertex 2.241990089416504 9.741588592529297 41.72627258300781
      vertex 0.9661697149276733 1.673454999923706 60.006500244140625
      vertex 2.3480708599090576 8.171833038330078 44.4988899230957
    endloop
  endfacet
  facet normal 0.7154222106354033 0.619390850441565 0.3233048637413721
    outer loop
      vertex 0.9661697149276733 1.673454999923706 60.006500244140625
      vertex 0.6980466842651367 0.4289712905883789 62.9840087890625
      vertex 5.8922505378723145 0.6769907474517822 51.0149040222168
    endloop
  endfacet
  facet normal 0.7154119208222395 0.6194010039491441 0.32330818092375296
    outer loop
      vertex 0.6980466842651367 0.4289712905883789 62.9840087890625
      vertex 0.9661697149276733 1.673454999923706 60.006500244140625
      vertex 2.241990089416504 9.741588592529297 41.72627258300781
    endloop
  endfacet
  facet normal 0.8116819359440105 -0.4731895702826205 0.3424384111602144
    outer loop
      vertex 5.8922505378723145 0.6769907474517822 51.0149040222168
      vertex 0.6980466842651367 0.4289712905883789 62.9840087890625
      vertex 0.8150181770324707 0.07830682396888733 62.22219467163086
    endloop
  endfacet
  facet normal 0.8117014520024273 -0.47316102524391124 0.3424315946393992
    outer loop
      vertex 3.916156768798828 -9.194804191589355 42.05769348144531
      vertex 3.8790602684020996 -9.10727310180664 42.26657485961914
      vertex 3.9110803604125977 -9.203264236450195 42.05803680419922
    endloop
  endfacet
  facet normal -0.0332406034901972 -0.02042914207507963 -0.999238566326222
    outer loop
      vertex 1.560193419456482 9.320572853088379 41.75756072998047
      vertex 2.241990089416504 9.741588592529297 41.72627258300781
      vertex 2.263137102127075 9.501562118530273 41.73047637939453
    endloop
  endfacet
  facet normal -0.03323184510835758 -0.02044332556939558 -0.9992385675655028
    outer loop
      vertex 2.241990089416504 9.741588592529297 41.72627258300781
      vertex 1.560193419456482 9.320572853088379 41.75756072998047
      vertex 1.2400729656219482 9.316072463989258 41.7682991027832
    endloop
  endfacet
  facet normal -0.03357638336219311 -0.02080916549207718 -0.9992194979642053
    outer loop
      vertex 3.9110803604125977 -9.203264236450195 42.05803680419922
      vertex 3.9035720825195312 -9.194629669189453 42.058109283447266
      vertex 3.910327911376953 -9.194723129272461 42.057884216308594
    endloop
  endfacet
  facet normal -0.1972605679782724 -0.9016909096707515 0.38476196763456494
    outer loop
      vertex 0.6980466842651367 0.4289712905883789 62.9840087890625
      vertex 0.5298544764518738 0.2862795889377594 62.56338119506836
      vertex 0.8150181770324707 0.07830682396888733 62.22219467163086
    endloop
  endfacet
  facet normal -0.19729117085573314 -0.9016861009264396 0.3847575461228126
    outer loop
      vertex 3.8790602684020996 -9.10727310180664 42.26657485961914
      vertex 3.8717923164367676 -9.194190979003906 42.05915451049805
      vertex 3.9110803604125977 -9.203264236450195 42.05803680419922
    endloop
  endfacet
  facet normal -0.19726236783846945 -0.9016909940247073 0.3847608471888686
    outer loop
      vertex -6.554482460021973 -6.786259174346924 42.35676956176758
      vertex -5.739529132843018 -5.032569408416748 46.884376525878906
      vertex -7.06597900390625 -6.668129920959473 42.371368408203125
    endloop
  endfacet
  facet normal -0.19726078277983922 -0.9016913960772904 0.3847607176119622
    outer loop
      vertex -5.739529132843018 -5.032569408416748 46.884376525878906
      vertex -6.554482460021973 -6.786259174346924 42.35676956176758
      vertex -4.440572738647461 -3.9305548667907715 50.13291549682617
    endloop
  endfacet
  facet normal -0.033146850083130265 -0.02043547523877701 -0.9992415512183886
    outer loop
      vertex 3.9110803604125977 -9.203264236450195 42.05803680419922
      vertex 3.8717923164367676 -9.194190979003906 42.05915451049805
      vertex 3.9035720825195312 -9.194629669189453 42.058109283447266
    endloop
  endfacet
  facet normal -0.03323965494559279 -0.020437276464322623 -0.9992384315416509
    outer loop
      vertex -6.554482460021973 -6.786259174346924 42.35676956176758
      vertex -7.06597900390625 -6.668129920959473 42.371368408203125
      vertex -6.664021015167236 -6.596725940704346 42.356536865234375
    endloop
  endfacet
  facet normal -0.03323971714947282 -0.02042906453010488 -0.9992385973961614
    outer loop
      vertex 2.263137102127075 9.501562118530273 41.73047637939453
      vertex 2.241990089416504 9.741588592529297 41.72627258300781
      vertex 2.416402578353882 9.541023254394531 41.724571228027344
    endloop
  endfacet
  facet normal -0.0329863280319696 -0.020757553453273778 -0.9992402244393497
    outer loop
      vertex 3.9110803604125977 -9.203264236450195 42.05803680419922
      vertex 3.910327911376953 -9.194723129272461 42.057884216308594
      vertex 3.916156768798828 -9.194804191589355 42.05769348144531
    endloop
  endfacet
  facet normal -0.9170808069400822 -0.07393644464490615 0.3917859054322891
    outer loop
      vertex 0.6980466842651367 0.4289712905883789 62.9840087890625
      vertex 0.44464853405952454 0.5580348968505859 62.415218353271484
      vertex 0.5298544764518738 0.2862795889377594 62.56338119506836
    endloop
  endfacet
  facet normal -0.9170826509746499 -0.0739296513161108 0.3917828709088576
    outer loop
      vertex -4.6563897132873535 -3.9894497394561768 49.61661911010742
      vertex -5.739529132843018 -5.032569408416748 46.884376525878906
      vertex -4.440572738647461 -3.9305548667907715 50.13291549682617
    endloop
  endfacet
  facet normal -0.35300995390431894 0.8661450629788983 0.35380319716157327
    outer loop
      vertex 0.6980466842651367 0.4289712905883789 62.9840087890625
      vertex 0.7434489130973816 1.2876912355422974 60.92707824707031
      vertex 0.44464853405952454 0.5580348968505859 62.415218353271484
    endloop
  endfacet
  facet normal -0.35300592982669077 0.8661464331076911 0.3538038579806856
    outer loop
      vertex 2.241990089416504 9.741588592529297 41.72627258300781
      vertex 0.7434489130973816 1.2876912355422974 60.92707824707031
      vertex 0.6980466842651367 0.4289712905883789 62.9840087890625
    endloop
  endfacet
  facet normal -0.3530125297160273 0.8661443315945149 0.35380241761494785
    outer loop
      vertex 0.7434489130973816 1.2876912355422974 60.92707824707031
      vertex 2.241990089416504 9.741588592529297 41.72627258300781
      vertex 1.2400729656219482 9.316072463989258 41.7682991027832
    endloop
  endfacet
endsolid OpenSCAD_Model
